<?xml version="1.0" encoding="UTF-8" standalone="no"?>
<svg
   width="128"
   height="128"
   version="1.1"
   id="svg246"
   sodipodi:docname="SplitFlapLabel.svg"
   inkscape:version="1.2.2 (732a01da63, 2022-12-09)"
   viewBox="0 0 16 16"
   xmlns:inkscape="http://www.inkscape.org/namespaces/inkscape"
   xmlns:sodipodi="http://sodipodi.sourceforge.net/DTD/sodipodi-0.dtd"
   xmlns="http://www.w3.org/2000/svg"
   xmlns:svg="http://www.w3.org/2000/svg">
  <defs
     id="defs250" />
  <sodipodi:namedview
     id="namedview248"
     pagecolor="#ffffff"
     bordercolor="#666666"
     borderopacity="1.0"
     inkscape:showpageshadow="2"
     inkscape:pageopacity="0.0"
     inkscape:pagecheckerboard="0"
     inkscape:deskcolor="#d1d1d1"
     showgrid="false"
     inkscape:zoom="3.1796875"
     inkscape:cx="50.633907"
     inkscape:cy="66.044226"
     inkscape:window-width="1920"
     inkscape:window-height="1017"
     inkscape:window-x="-8"
     inkscape:window-y="-8"
     inkscape:window-maximized="1"
     inkscape:current-layer="layer1" />
  <path
     fill="#8eef97"
     d="M 15,3 A 2,2 0 0 0 13,1 H 3 A 2,2 0 0 0 1,3 v 10 a 2,2 0 0 0 2,2 h 10 a 2,2 0 0 0 2,-2 z M 13,3 V 7 H 10 L 8,5 6,7 H 3 V 3 Z m 0,6 v 4 H 3 V 9 h 3 l 2,2 2,-2 z"
     id="path244"
     style="display:none" />
  <g
     inkscape:groupmode="layer"
     id="layer1"
     inkscape:label="Layer 1">
    <path
       fill="#8eef97"
       d="M 15,3 C 15,1.8954305 14.104569,1 13,1 H 3 C 1.8954305,1 1,1.8954305 1,3 v 10 c 0,1.104569 0.8954305,2 2,2 h 10 c 1.104569,0 2,-0.895431 2,-2 z M 13,3 V 5.15 H 12 V 7 H 4 V 5.15 H 3 V 3 Z m 0,8 v 2 H 3 V 11 H 4 V 9 h 8 v 2 z"
       id="path244-2"
       sodipodi:nodetypes="ssssssssscccccccccccccccccc" />
  </g>
</svg>
